<svg width="128" height="128" viewBox="0 0 128 128" fill="none" xmlns="http://www.w3.org/2000/svg">
<ellipse cx="69" cy="46.5" rx="34" ry="26.5" fill="#8E51FF"/>
<ellipse cx="46.7816" cy="54.5037" rx="19" ry="30" transform="rotate(-46.0235 46.7816 54.5037)" fill="#8E51FF"/>
<ellipse cx="96" cy="73.5" rx="32" ry="29.5" fill="#8E51FF"/>
<ellipse cx="64.5" cy="87" rx="29.5" ry="30" fill="#8E51FF"/>
<ellipse cx="34.5946" cy="73.1891" rx="29.5946" ry="29.5946" fill="#8E51FF"/>
<path d="M38 58.5H40.25V60.75H38V58.5ZM40.25 58.5H42.5V60.75H40.25V58.5ZM40.25 60.75H42.5V63H40.25V60.75ZM40.25 63H42.5V65.25H40.25V63ZM40.25 65.25H42.5V67.5H40.25V65.25ZM38 65.25H40.25V67.5H38V65.25ZM38 63H40.25V65.25H38V63ZM38 60.75H40.25V63H38V60.75ZM38 67.5H40.25V69.75H38V67.5ZM38 69.75H40.25V72H38V69.75ZM38 72H40.25V74.25H38V72ZM40.25 69.75H42.5V72H40.25V69.75ZM40.25 67.5H42.5V69.75H40.25V67.5ZM40.25 72H42.5V74.25H40.25V72ZM40.25 74.25H42.5V76.5H40.25V74.25ZM38 76.5H40.25V78.75H38V76.5ZM38 74.25H40.25V76.5H38V74.25ZM38 78.75H40.25V81H38V78.75ZM40.25 78.75H42.5V81H40.25V78.75ZM40.25 76.5H42.5V78.75H40.25V76.5ZM42.5 78.75H44.75V81H42.5V78.75ZM44.75 78.75H47V81H44.75V78.75ZM47 78.75H49.25V81H47V78.75ZM47 76.5H49.25V78.75H47V76.5ZM44.75 76.5H47V78.75H44.75V76.5ZM42.5 76.5H44.75V78.75H42.5V76.5ZM51.4941 78.75H53.7441V81H51.4941V78.75ZM51.4941 76.5H53.7441V78.75H51.4941V76.5ZM51.4941 74.25H53.7441V76.5H51.4941V74.25ZM51.4941 72H53.7441V74.25H51.4941V72ZM51.4941 69.75H53.7441V72H51.4941V69.75ZM51.4941 67.5H53.7441V69.75H51.4941V67.5ZM53.7441 67.5H55.9941V69.75H53.7441V67.5ZM53.7441 65.25H55.9941V67.5H53.7441V65.25ZM53.7441 63H55.9941V65.25H53.7441V63ZM53.7441 60.75H55.9941V63H53.7441V60.75ZM51.4941 60.75H53.7441V63H51.4941V60.75ZM51.4941 58.5H53.7441V60.75H51.4941V58.5ZM51.4941 63H53.7441V65.25H51.4941V63ZM51.4941 65.25H53.7441V67.5H51.4941V65.25ZM53.7441 58.5H55.9941V60.75H53.7441V58.5ZM53.7441 69.75H55.9941V72H53.7441V69.75ZM53.7441 72H55.9941V74.25H53.7441V72ZM53.7441 74.25H55.9941V76.5H53.7441V74.25ZM53.7441 76.5H55.9941V78.75H53.7441V76.5ZM53.7441 78.75H55.9941V81H53.7441V78.75ZM55.9941 63H58.2441V65.25H55.9941V63ZM55.9941 65.25H58.2441V67.5H55.9941V65.25ZM58.2441 65.25H60.4941V67.5H58.2441V65.25ZM58.2441 67.5H60.4941V69.75H58.2441V67.5ZM60.4941 67.5H62.7441V69.75H60.4941V67.5ZM60.4941 69.75H62.7441V72H60.4941V69.75ZM62.7441 67.5H64.9941V69.75H62.7441V67.5ZM62.7441 65.25H64.9941V67.5H62.7441V65.25ZM64.9941 65.25H67.2441V67.5H64.9941V65.25ZM64.9941 63H67.2441V65.25H64.9941V63ZM67.2441 58.5H69.4941V60.75H67.2441V58.5ZM67.2441 60.75H69.4941V63H67.2441V60.75ZM67.2441 63H69.4941V65.25H67.2441V63ZM67.2441 65.25H69.4941V67.5H67.2441V65.25ZM67.2441 67.5H69.4941V69.75H67.2441V67.5ZM67.2441 69.75H69.4941V72H67.2441V69.75ZM67.2441 72H69.4941V74.25H67.2441V72ZM67.2441 74.25H69.4941V76.5H67.2441V74.25ZM67.2441 76.5H69.4941V78.75H67.2441V76.5ZM67.2441 78.75H69.4941V81H67.2441V78.75ZM69.4941 78.75H71.7441V81H69.4941V78.75ZM69.4941 76.5H71.7441V78.75H69.4941V76.5ZM69.4941 74.25H71.7441V76.5H69.4941V74.25ZM69.4941 72H71.7441V74.25H69.4941V72ZM69.4941 69.75H71.7441V72H69.4941V69.75ZM69.4941 67.5H71.7441V69.75H69.4941V67.5ZM69.4941 65.25H71.7441V67.5H69.4941V65.25ZM69.4941 63H71.7441V65.25H69.4941V63ZM69.4941 60.75H71.7441V63H69.4941V60.75ZM69.4941 58.5H71.7441V60.75H69.4941V58.5ZM55.9941 60.75H58.2441V63H55.9941V60.75ZM58.2441 63H60.4941V65.25H58.2441V63ZM60.4941 65.25H62.7441V67.5H60.4941V65.25ZM62.7441 63H64.9941V65.25H62.7441V63ZM64.9941 60.75H67.2441V63H64.9941V60.75ZM87.5117 63H89.7617V65.25H87.5117V63ZM85.2617 63H87.5117V65.25H85.2617V63ZM85.2617 60.75H87.5117V63H85.2617V60.75ZM87.5117 60.75H89.7617V63H87.5117V60.75ZM85.2617 58.5H87.5117V60.75H85.2617V58.5ZM83.0117 58.5H85.2617V60.75H83.0117V58.5ZM83.0117 60.75H85.2617V63H83.0117V60.75ZM80.7617 60.75H83.0117V63H80.7617V60.75ZM78.5117 60.75H80.7617V63H78.5117V60.75ZM78.5117 58.5H80.7617V60.75H78.5117V58.5ZM76.2617 58.5H78.5117V60.75H76.2617V58.5ZM80.7617 58.5H83.0117V60.75H80.7617V58.5ZM76.2617 60.75H78.5117V63H76.2617V60.75ZM74.0117 60.75H76.2617V63H74.0117V60.75ZM74.0117 63H76.2617V65.25H74.0117V63ZM76.2617 63H78.5117V65.25H76.2617V63ZM76.2617 65.25H78.5117V67.5H76.2617V65.25ZM76.2617 67.5H78.5117V69.75H76.2617V67.5ZM74.0117 67.5H76.2617V69.75H74.0117V67.5ZM74.0117 65.25H76.2617V67.5H74.0117V65.25ZM76.2617 69.75H78.5117V72H76.2617V69.75ZM78.5117 69.75H80.7617V72H78.5117V69.75ZM78.5117 67.5H80.7617V69.75H78.5117V67.5ZM80.7617 67.5H83.0117V69.75H80.7617V67.5ZM83.0117 67.5H85.2617V69.75H83.0117V67.5ZM85.2617 67.5H87.5117V69.75H85.2617V67.5ZM85.2617 69.75H87.5117V72H85.2617V69.75ZM83.0117 69.75H85.2617V72H83.0117V69.75ZM80.7617 69.75H83.0117V72H80.7617V69.75ZM87.5117 69.75H89.7617V72H87.5117V69.75ZM87.5117 72H89.7617V74.25H87.5117V72ZM85.2617 72H87.5117V74.25H85.2617V72ZM83.0117 76.5H85.2617V78.75H83.0117V76.5ZM85.2617 76.5H87.5117V78.75H85.2617V76.5ZM85.2617 74.25H87.5117V76.5H85.2617V74.25ZM87.5117 74.25H89.7617V76.5H87.5117V74.25ZM87.5117 76.5H89.7617V78.75H87.5117V76.5ZM85.2617 78.75H87.5117V81H85.2617V78.75ZM83.0117 78.75H85.2617V81H83.0117V78.75ZM80.7617 78.75H83.0117V81H80.7617V78.75ZM78.5117 78.75H80.7617V81H78.5117V78.75ZM76.2617 78.75H78.5117V81H76.2617V78.75ZM76.2617 76.5H78.5117V78.75H76.2617V76.5ZM78.5117 76.5H80.7617V78.75H78.5117V76.5ZM80.7617 76.5H83.0117V78.75H80.7617V76.5ZM74.0117 76.5H76.2617V78.75H74.0117V76.5ZM74.0117 74.25H76.2617V76.5H74.0117V74.25ZM76.2617 74.25H78.5117V76.5H76.2617V74.25Z" fill="white"/>
</svg>
